<svg width="64" height="52" viewBox="0 0 64 52" fill="none" xmlns="http://www.w3.org/2000/svg">
<path d="M55 28.8516L62.5 35.9446L29.2 51.1851C29.2 51.1851 24.8 53.1021 22.7 50.0349C14.5 37.7658 55 28.8516 55 28.8516Z" fill="#962C2C"/>
<path d="M28.4 42.2707C28.4 42.2707 22 44.3795 23.2 48.5011C24.4 52.7185 29.5 50.1305 29.5 50.1305L61.1 36.0404C61.1 36.0404 59.3 31.5354 62.5 28.564L28.4 42.2707Z" fill="#D9E3E8"/>
<path d="M33.7 0L64 28.2765L28.2 41.6959L5.20001 7.38065L33.7 0Z" fill="#FFCE31"/>
<path d="M34.6 6.422L40.4 12.3648L18.7 19.8412L13.6 12.2689L34.6 6.422Z" fill="white"/>
<path d="M61 31.6312L39.9 39.8745L60.7 30.7686L61 31.6312Z" fill="#94989B"/>
<path d="M60.7 34.1233L38.2 43.0375L60.3 33.1648L60.7 34.1233Z" fill="#94989B"/>
<path d="M60.9 35.4653L32.2 47.4467L60.5 34.6027L60.9 35.4653Z" fill="#94989B"/>
<path d="M22.7 50.0347C19.2 43.0375 28.2 41.7915 28.2 41.7915L5.2 7.38062C5.2 7.38062 0 7.28476 0 12.4608C0 14.5695 1 16.199 1 16.199L22.7 50.0347Z" fill="#FF8736"/>
</svg>
