<svg width="43" height="39" viewBox="0 0 43 39" fill="none" xmlns="http://www.w3.org/2000/svg">
<path d="M40.2463 14.8654H2.58081V33.9815H40.2463V14.8654Z" fill="#F9CFCF"/>
<path d="M40.9461 37.6553H1.89929C1.70505 37.6553 1.54773 37.4917 1.54773 37.2896V34.371C1.54773 34.1689 1.70505 34.0052 1.89929 34.0052H40.9461C41.1403 34.0052 41.2977 34.1689 41.2977 34.371V37.2896C41.2977 37.4915 41.1403 37.6553 40.9461 37.6553Z" fill="#F9A7A7"/>
<path d="M35.981 33.9817H27.5658V17.8947C27.5658 17.4785 27.8901 17.1412 28.29 17.1412H35.2566C35.6567 17.1412 35.9808 17.4786 35.9808 17.8947V33.9817H35.981Z" fill="#A4C9FF"/>
<path d="M32.623 0.861136C32.356 0.546232 31.972 0.365921 31.5684 0.365921H22.0904H20.7344H11.2565C10.8529 0.365921 10.4688 0.546232 10.2018 0.861136L2.68433 9.72874H20.7425H22.0823H40.1405L32.623 0.861136Z" fill="#4671C6"/>
<path d="M41.77 14.8654H1.12061C0.695918 14.8654 0.351562 14.5072 0.351562 14.0653V10.5288C0.351562 10.087 0.695918 9.72874 1.12061 9.72874H41.77C42.1947 9.72874 42.5391 10.087 42.5391 10.5288V14.0653C42.5391 14.5073 42.1947 14.8654 41.77 14.8654Z" fill="#6BDDDD"/>
<path d="M24.5399 31.8358H5.25689C5.04806 31.8358 4.87878 31.6597 4.87878 31.4425V29.7257C4.87878 29.5084 5.04806 29.3323 5.25689 29.3323H24.5399C24.7487 29.3323 24.918 29.5084 24.918 29.7257V31.4425C24.918 31.6599 24.7487 31.8358 24.5399 31.8358Z" fill="#A4C9FF"/>
<path d="M33.7155 32.4792H29.6851C29.4908 32.4792 29.3335 32.3155 29.3335 32.1134V19.0094C29.3335 18.8074 29.4908 18.6437 29.6851 18.6437H33.7155C33.9098 18.6437 34.0671 18.8074 34.0671 19.0094V32.1134C34.0671 32.3153 33.9098 32.4792 33.7155 32.4792Z" fill="#E0EBFC"/>
<path d="M26.0312 33.9816H37.5156C37.7098 33.9816 37.8671 34.1453 37.8671 34.3474V35.8023H25.6797V34.3474C25.6797 34.1453 25.837 33.9816 26.0312 33.9816Z" fill="#F9CFCF"/>
<path d="M24.7048 35.8021H38.8698C39.0641 35.8021 39.2214 35.9658 39.2214 36.1679V37.6228H24.3533V36.1679C24.3533 35.966 24.5108 35.8021 24.7048 35.8021Z" fill="#F9CFCF"/>
<path d="M29.3337 26.1815H34.0671V25.0842H29.3337V26.1815Z" fill="#A4C9FF"/>
<path d="M40.9461 38.0211H1.89929C1.51152 38.0211 1.19617 37.693 1.19617 37.2896V34.3708C1.19617 33.9674 1.51152 33.6393 1.89929 33.6393H40.9461C41.3339 33.6393 41.6492 33.9674 41.6492 34.3708V37.2896C41.6492 37.693 41.3341 38.0211 40.9461 38.0211ZM1.89929 34.3708V37.2896H40.9466L40.9461 34.3708H1.89929Z" fill="#3762CC"/>
<path d="M40.1405 10.0945H2.68433C2.54616 10.0945 2.42066 10.0102 2.36388 9.87924C2.30693 9.74813 2.32925 9.59451 2.42066 9.4868L9.93812 0.619201C10.2719 0.225846 10.7523 0 11.2565 0H31.5685C32.0725 0 32.5531 0.225663 32.8867 0.619201C32.8869 0.619201 32.8869 0.619201 32.8869 0.619201L40.4043 9.4868C40.4957 9.5947 40.5179 9.74831 40.4611 9.87924C40.404 10.0102 40.2788 10.0945 40.1405 10.0945ZM3.46321 9.363H39.3618L32.3595 1.10308C32.1591 0.866809 31.8709 0.731484 31.5685 0.731484H11.2565C10.954 0.731484 10.6657 0.866809 10.4655 1.10308L3.46321 9.363Z" fill="#3762CC"/>
<path d="M41.77 15.2312H1.12061C0.502734 15.2312 0 14.7083 0 14.0654V10.5288C0 9.88583 0.502734 9.36301 1.12061 9.36301H41.77C42.3881 9.36301 42.8906 9.88583 42.8906 10.5288V14.0654C42.8906 14.7083 42.3881 15.2312 41.77 15.2312ZM1.12061 10.0945C0.890332 10.0945 0.703125 10.2892 0.703125 10.5288V14.0654C0.703125 14.3049 0.890332 14.4997 1.12061 14.4997H41.77C42.0003 14.4997 42.1875 14.3049 42.1875 14.0654V10.5288C42.1875 10.2892 42.0003 10.0945 41.77 10.0945H1.12061Z" fill="#3762CC"/>
<path d="M37.8671 36.1679H25.6797C25.4856 36.1679 25.3281 36.004 25.3281 35.8021V34.3474C25.3281 33.944 25.6435 33.6159 26.0312 33.6159H37.5156C37.9033 33.6159 38.2187 33.944 38.2187 34.3474V35.8021C38.2187 36.0042 38.0612 36.1679 37.8671 36.1679ZM26.0311 35.4364H37.5156V34.3474H26.0307L26.0311 35.4364Z" fill="#3762CC"/>
<path d="M39.2214 37.9885H24.3533C24.1592 37.9885 24.0017 37.8247 24.0017 37.6228V36.1679C24.0017 35.7644 24.3171 35.4364 24.7048 35.4364H38.8698C39.2576 35.4364 39.5729 35.7644 39.5729 36.1679V37.6228C39.5729 37.8249 39.4154 37.9885 39.2214 37.9885ZM24.7047 37.257H38.8698V36.1679H24.7043L24.7047 37.257Z" fill="#3762CC"/>
<path d="M40.2463 34.3474H2.58081C2.38675 34.3474 2.22925 34.1835 2.22925 33.9817V14.8654C2.22925 14.6635 2.38675 14.4997 2.58081 14.4997H40.2463C40.4404 14.4997 40.5979 14.6635 40.5979 14.8654V33.9817C40.5979 34.1837 40.4406 34.3474 40.2463 34.3474ZM2.93237 33.6159H39.8948V15.2311H2.93237V33.6159Z" fill="#3762CC"/>
<path d="M35.981 34.3474H27.5658C27.3717 34.3474 27.2142 34.1835 27.2142 33.9817V17.8947C27.2142 17.2775 27.6968 16.7755 28.29 16.7755H35.2568C35.85 16.7755 36.3326 17.2775 36.3326 17.8947V33.9817C36.3326 34.1837 36.1752 34.3474 35.981 34.3474ZM27.9174 33.6159H35.6294V17.8947C35.6294 17.6809 35.4623 17.507 35.2568 17.507H28.29C28.0845 17.507 27.9174 17.6809 27.9174 17.8947V33.6159Z" fill="#3762CC"/>
<path d="M24.5397 32.2018H5.25689C4.85453 32.2018 4.52722 31.8613 4.52722 31.4427V29.7259C4.52722 29.3075 4.85453 28.9669 5.25689 28.9669H24.5397C24.9421 28.9669 25.2694 29.3075 25.2694 29.7259V31.4427C25.2696 31.8611 24.9423 32.2018 24.5397 32.2018ZM5.25689 29.6983C5.2423 29.6983 5.23035 29.7105 5.23035 29.7257V31.4425C5.23035 31.4577 5.2423 31.4701 5.25689 31.4701H24.5397C24.5543 31.4701 24.5663 31.4577 24.5663 31.4425V29.7257C24.5663 29.7105 24.5543 29.6983 24.5397 29.6983H5.25689Z" fill="#3762CC"/>
<path d="M21.4453 14.7774C25.0919 14.7774 28.0482 11.702 28.0482 7.90826C28.0482 4.11452 25.0919 1.03908 21.4453 1.03908C17.7986 1.03908 14.8424 4.11452 14.8424 7.90826C14.8424 11.702 17.7986 14.7774 21.4453 14.7774Z" fill="#E0EBFC"/>
<path d="M21.4453 15.1432C17.6106 15.1432 14.4908 11.8976 14.4908 7.90825C14.4908 3.91892 17.6106 0.673508 21.4453 0.673508C25.2798 0.673508 28.3995 3.9191 28.3995 7.90844C28.3995 11.8978 25.2798 15.1432 21.4453 15.1432ZM21.4453 1.40499C17.9984 1.40499 15.194 4.32233 15.194 7.90844C15.194 11.4945 17.9984 14.4119 21.4453 14.4119C24.8922 14.4119 27.6964 11.4945 27.6964 7.90844C27.6964 4.32233 24.8922 1.40499 21.4453 1.40499Z" fill="#3762CC"/>
<path d="M17.4675 6.8551V11.6304C17.4675 11.9987 17.7544 12.2972 18.1084 12.2972H24.7169C25.0709 12.2972 25.3578 11.9987 25.3578 11.6304V6.8551H17.4675Z" fill="#A4C9FF"/>
<path d="M25.4531 6.85511H17.4375C17.2531 6.85511 17.1035 6.69949 17.1035 6.50766V4.90059C17.1035 4.70875 17.2531 4.55313 17.4375 4.55313H25.4531C25.6375 4.55313 25.7871 4.70875 25.7871 4.90059V6.50766C25.7871 6.69949 25.6375 6.85511 25.4531 6.85511Z" fill="#A4C9FF"/>
<path d="M22.373 4.55313H20.4526V12.297H22.373V4.55313Z" fill="#FFEA92"/>
<path d="M24.2204 2.85077H23.6491C23.6195 2.85077 23.5902 2.85479 23.5615 2.86284L21.4128 3.4696V4.55312H24.2204C24.4048 4.55312 24.5544 4.39749 24.5544 4.20566V3.19804C24.5544 3.00621 24.4048 2.85077 24.2204 2.85077Z" fill="#F9A7A7"/>
<path d="M19.1765 2.85077H18.6052C18.4208 2.85077 18.2712 3.00639 18.2712 3.19822V4.20584C18.2712 4.39768 18.4208 4.5533 18.6052 4.5533H21.4128V3.46979L19.264 2.86302C19.2354 2.85479 19.206 2.85077 19.1765 2.85077Z" fill="#F9A7A7"/>
<path d="M21.9294 4.55312H20.8962V3.58902C20.8962 3.39719 21.0458 3.24156 21.2302 3.24156H21.5954C21.7798 3.24156 21.9294 3.39719 21.9294 3.58902V4.55312Z" fill="#F9A7A7"/>
<path d="M24.0391 19.6446H5.75787V29.3325H24.0391V19.6446Z" fill="#E0EBFC"/>
<path d="M24.5399 19.6446H5.25689C5.04806 19.6446 4.87878 19.4685 4.87878 19.2512V17.5344C4.87878 17.3172 5.04806 17.1411 5.25689 17.1411H24.5399C24.7487 17.1411 24.918 17.3172 24.918 17.5344V19.2512C24.918 19.4685 24.7487 19.6446 24.5399 19.6446Z" fill="#A4C9FF"/>
<path d="M24.5397 32.2018H5.25689C4.85453 32.2018 4.52722 31.8613 4.52722 31.4427V29.7259C4.52722 29.3075 4.85453 28.9669 5.25689 28.9669H24.5397C24.9421 28.9669 25.2694 29.3075 25.2694 29.7259V31.4427C25.2696 31.8611 24.9423 32.2018 24.5397 32.2018ZM5.25689 29.6983C5.2423 29.6983 5.23035 29.7105 5.23035 29.7257V31.4425C5.23035 31.4577 5.2423 31.4701 5.25689 31.4701H24.5397C24.5543 31.4701 24.5663 31.4577 24.5663 31.4425V29.7257C24.5663 29.7105 24.5543 29.6983 24.5397 29.6983H5.25689Z" fill="#3762CC"/>
<path d="M24.5397 20.0103H5.25689C4.85453 20.0103 4.52722 19.6698 4.52722 19.2514V17.5346C4.52722 17.1162 4.85453 16.7757 5.25689 16.7757H24.5397C24.9421 16.7757 25.2694 17.1162 25.2694 17.5346V19.2514C25.2696 19.6696 24.9423 20.0103 24.5397 20.0103ZM5.25689 17.507C5.2423 17.507 5.23035 17.5192 5.23035 17.5344V19.2512C5.23035 19.2664 5.2423 19.2786 5.25689 19.2786H24.5397C24.5543 19.2786 24.5663 19.2664 24.5663 19.2512V17.5344C24.5663 17.5192 24.5543 17.507 24.5397 17.507H5.25689Z" fill="#3762CC"/>
<path d="M24.0391 29.6983H5.75787C5.56381 29.6983 5.40631 29.5344 5.40631 29.3325V19.6444C5.40631 19.4425 5.56381 19.2786 5.75787 19.2786H24.0391C24.2332 19.2786 24.3907 19.4425 24.3907 19.6444V29.3325C24.3907 29.5346 24.2332 29.6983 24.0391 29.6983ZM6.10926 28.9668H23.6874V20.0101H6.10926V28.9668Z" fill="#3762CC"/>
<path d="M20.6112 29.6983H9.18542C8.99136 29.6983 8.83386 29.5344 8.83386 29.3325V19.6444C8.83386 19.4425 8.99136 19.2786 9.18542 19.2786H20.6112C20.8053 19.2786 20.9628 19.4425 20.9628 19.6444V29.3325C20.9628 29.5346 20.8054 29.6983 20.6112 29.6983ZM9.53699 28.9668H20.2596V20.0101H9.53699V28.9668Z" fill="#3762CC"/>
</svg>
