<svg width="240" height="59" viewBox="0 0 240 59" fill="none" xmlns="http://www.w3.org/2000/svg">
<path d="M61.6 27.76H62.84C66.0667 27.76 67.68 26.2267 67.68 23.16C67.68 19.9867 66.0667 18.4 62.84 18.4H61.6V27.76ZM61.6 39.2H63.84C65.44 39.2 66.7067 38.7867 67.64 37.96C68.5733 37.1333 69.04 35.9333 69.04 34.36C69.04 32.1467 68.4933 30.6267 67.4 29.8C66.3067 28.9733 64.8 28.56 62.88 28.56H61.6V39.2ZM53.6 40V39.2H55.6V18.4H53.6V17.6H63.68C66.9867 17.6 69.4133 18.1067 70.96 19.12C72.5333 20.1333 73.32 21.52 73.32 23.28C73.32 24.6933 72.8533 25.8533 71.92 26.76C71.0133 27.64 69.7867 28.08 68.24 28.08V28.32C70.16 28.32 71.7733 28.84 73.08 29.88C74.3867 30.8933 75.04 32.3467 75.04 34.24C75.04 36.1333 74.28 37.5733 72.76 38.56C71.24 39.52 69.0667 40 66.24 40H53.6ZM84.0281 37.6C84.6148 38.9333 85.6281 39.6 87.0681 39.6C88.5081 39.6 89.5348 38.92 90.1481 37.56C90.7615 36.2 91.0681 33.96 91.0681 30.84C91.0681 27.6933 90.7615 25.44 90.1481 24.08C89.5348 22.6933 88.5081 22 87.0681 22C85.6281 22 84.6148 22.6933 84.0281 24.08C83.4415 25.44 83.1481 27.6933 83.1481 30.84C83.1481 33.9867 83.4415 36.24 84.0281 37.6ZM86.9881 40.4C84.4548 40.4 82.1615 39.5733 80.1081 37.92C78.0548 36.2667 77.0281 33.92 77.0281 30.88C77.0281 29.2533 77.3215 27.8 77.9081 26.52C78.5215 25.24 79.3215 24.2267 80.3081 23.48C81.3215 22.7333 82.4015 22.1733 83.5481 21.8C84.6948 21.4 85.8681 21.2 87.0681 21.2C88.2681 21.2 89.4415 21.4 90.5881 21.8C91.7615 22.1733 92.8415 22.7333 93.8281 23.48C94.8415 24.2267 95.6548 25.24 96.2681 26.52C96.8815 27.8 97.1881 29.24 97.1881 30.84C97.1881 32.44 96.8815 33.8667 96.2681 35.12C95.6548 36.3733 94.8415 37.3733 93.8281 38.12C91.8015 39.64 89.5215 40.4 86.9881 40.4ZM106.606 37.6C107.193 38.9333 108.206 39.6 109.646 39.6C111.086 39.6 112.113 38.92 112.726 37.56C113.34 36.2 113.646 33.96 113.646 30.84C113.646 27.6933 113.34 25.44 112.726 24.08C112.113 22.6933 111.086 22 109.646 22C108.206 22 107.193 22.6933 106.606 24.08C106.02 25.44 105.726 27.6933 105.726 30.84C105.726 33.9867 106.02 36.24 106.606 37.6ZM109.566 40.4C107.033 40.4 104.74 39.5733 102.686 37.92C100.633 36.2667 99.6063 33.92 99.6063 30.88C99.6063 29.2533 99.8996 27.8 100.486 26.52C101.1 25.24 101.9 24.2267 102.886 23.48C103.9 22.7333 104.98 22.1733 106.126 21.8C107.273 21.4 108.446 21.2 109.646 21.2C110.846 21.2 112.02 21.4 113.166 21.8C114.34 22.1733 115.42 22.7333 116.406 23.48C117.42 24.2267 118.233 25.24 118.846 26.52C119.46 27.8 119.766 29.24 119.766 30.84C119.766 32.44 119.46 33.8667 118.846 35.12C118.233 36.3733 117.42 37.3733 116.406 38.12C114.38 39.64 112.1 40.4 109.566 40.4ZM145.304 39.2V40C141.678 40 139.158 39.7467 137.744 39.24C136.358 38.7067 134.984 37.4 133.624 35.32L131.104 31.44L130.584 31.92V39.2H132.584V40H122.584V39.2H124.584V14H122.584V13.2H130.584V30.72L138.944 22.4H135.704V21.6H143.304V22.4H140.144L135.344 27.16L140.144 34.36C142.304 37.5867 144.024 39.2 145.304 39.2ZM148.911 40H148.111V30.68H148.911C148.911 33.1867 149.804 35.32 151.591 37.08C153.404 38.84 155.604 39.72 158.191 39.72C159.258 39.72 160.111 39.4133 160.751 38.8C161.418 38.16 161.751 37.32 161.751 36.28C161.751 35.1067 160.991 34.1067 159.471 33.28C158.644 32.8533 157.218 32.1867 155.191 31.28C153.164 30.3467 151.738 29.56 150.911 28.92C149.258 27.64 148.524 25.9467 148.711 23.84C148.924 21.7333 149.724 20.1067 151.111 18.96C152.498 17.7867 154.058 17.2 155.791 17.2C157.551 17.2 159.124 17.44 160.511 17.92C161.924 18.3733 162.724 18.6 162.911 18.6C163.444 18.6 163.711 18.1333 163.711 17.2H164.511V24.52H163.711C163.711 22.6 163.004 21.04 161.591 19.84C160.178 18.6133 158.364 18 156.151 18C155.164 18 154.391 18.2933 153.831 18.88C153.271 19.44 152.991 20.0667 152.991 20.76C152.991 21.4533 153.084 21.9867 153.271 22.36C153.458 22.7333 153.778 23.08 154.231 23.4C154.711 23.6933 155.124 23.9333 155.471 24.12C155.818 24.3067 156.364 24.56 157.111 24.88C157.884 25.2 158.418 25.4267 158.711 25.56C160.178 26.2267 161.044 26.6267 161.311 26.76C161.578 26.8667 161.964 27.0533 162.471 27.32C162.978 27.5867 163.351 27.8267 163.591 28.04C163.858 28.2533 164.191 28.52 164.591 28.84C164.991 29.16 165.284 29.4933 165.471 29.84C165.658 30.16 165.844 30.5333 166.031 30.96C166.404 31.8133 166.538 32.8133 166.431 33.96C166.218 36.12 165.404 37.7733 163.991 38.92C162.604 40.04 160.724 40.6 158.351 40.6C156.218 40.6 154.098 40.0533 151.991 38.96C151.271 38.5867 150.738 38.4 150.391 38.4C149.404 38.4 148.911 38.9333 148.911 40ZM190.616 39.2H192.616V40H182.616V39.2H184.616V28C184.616 26.1067 184.336 24.76 183.776 23.96C183.216 23.16 182.376 22.76 181.256 22.76C179.736 22.76 178.522 23.56 177.616 25.16V39.2H179.616V40H169.616V39.2H171.616V14H169.616V13.2H177.616V23.68C178.122 22.96 178.909 22.36 179.976 21.88C181.042 21.4 182.216 21.16 183.496 21.16C188.242 21.16 190.616 23.7333 190.616 28.88V39.2ZM201.997 37.6C202.584 38.9333 203.597 39.6 205.037 39.6C206.477 39.6 207.504 38.92 208.117 37.56C208.73 36.2 209.037 33.96 209.037 30.84C209.037 27.6933 208.73 25.44 208.117 24.08C207.504 22.6933 206.477 22 205.037 22C203.597 22 202.584 22.6933 201.997 24.08C201.41 25.44 201.117 27.6933 201.117 30.84C201.117 33.9867 201.41 36.24 201.997 37.6ZM204.957 40.4C202.424 40.4 200.13 39.5733 198.077 37.92C196.024 36.2667 194.997 33.92 194.997 30.88C194.997 29.2533 195.29 27.8 195.877 26.52C196.49 25.24 197.29 24.2267 198.277 23.48C199.29 22.7333 200.37 22.1733 201.517 21.8C202.664 21.4 203.837 21.2 205.037 21.2C206.237 21.2 207.41 21.4 208.557 21.8C209.73 22.1733 210.81 22.7333 211.797 23.48C212.81 24.2267 213.624 25.24 214.237 26.52C214.85 27.8 215.157 29.24 215.157 30.84C215.157 32.44 214.85 33.8667 214.237 35.12C213.624 36.3733 212.81 37.3733 211.797 38.12C209.77 39.64 207.49 40.4 204.957 40.4ZM225.175 30.36V36.96C225.895 38.4 226.828 39.12 227.975 39.12C229.148 39.12 230.148 38.4533 230.975 37.12C231.802 35.7867 232.215 33.6533 232.215 30.72C232.215 27.76 231.895 25.6933 231.255 24.52C230.615 23.32 229.642 22.72 228.335 22.72C227.028 22.72 226.175 23.2533 225.775 24.32C225.375 25.3867 225.175 27.4 225.175 30.36ZM225.175 23.44C226.082 21.8933 227.708 21.12 230.055 21.12C232.402 21.12 234.362 21.9733 235.935 23.68C237.508 25.3867 238.295 27.8 238.295 30.92C238.295 34.04 237.522 36.48 235.975 38.24C234.428 40 232.548 40.88 230.335 40.88C229.242 40.88 228.215 40.6533 227.255 40.2C226.295 39.7467 225.602 39.0667 225.175 38.16V47.6H227.175V48.4H219.175V22.4H217.175V21.6H225.175V23.44Z" fill="#14668C"/>
<path d="M40.2463 24.8655H2.58081V43.9815H40.2463V24.8655Z" fill="#F9CFCF"/>
<path d="M40.9461 47.6552H1.89929C1.70505 47.6552 1.54773 47.4916 1.54773 47.2895V44.3709C1.54773 44.1688 1.70505 44.0051 1.89929 44.0051H40.9461C41.1403 44.0051 41.2977 44.1688 41.2977 44.3709V47.2895C41.2977 47.4914 41.1403 47.6552 40.9461 47.6552Z" fill="#F9A7A7"/>
<path d="M35.981 43.9815H27.5658V27.8945C27.5658 27.4783 27.8901 27.1411 28.29 27.1411H35.2566C35.6567 27.1411 35.9808 27.4785 35.9808 27.8945V43.9815H35.981Z" fill="#A4C9FF"/>
<path d="M32.623 10.8612C32.356 10.5463 31.972 10.366 31.5684 10.366H22.0904H20.7344H11.2565C10.8529 10.366 10.4688 10.5463 10.2018 10.8612L2.68433 19.7288H20.7425H22.0823H40.1405L32.623 10.8612Z" fill="#4671C6"/>
<path d="M41.77 24.8654H1.12061C0.695918 24.8654 0.351562 24.5072 0.351562 24.0654V20.5288C0.351562 20.087 0.695918 19.7288 1.12061 19.7288H41.77C42.1947 19.7288 42.5391 20.087 42.5391 20.5288V24.0654C42.5391 24.5074 42.1947 24.8654 41.77 24.8654Z" fill="#6BDDDD"/>
<path d="M24.5399 41.8358H5.25689C5.04806 41.8358 4.87878 41.6597 4.87878 41.4424V39.7256C4.87878 39.5084 5.04806 39.3323 5.25689 39.3323H24.5399C24.7487 39.3323 24.918 39.5084 24.918 39.7256V41.4424C24.918 41.6599 24.7487 41.8358 24.5399 41.8358Z" fill="#A4C9FF"/>
<path d="M33.7155 42.4793H29.6851C29.4908 42.4793 29.3335 42.3156 29.3335 42.1135V29.0095C29.3335 28.8075 29.4908 28.6438 29.6851 28.6438H33.7155C33.9098 28.6438 34.0671 28.8075 34.0671 29.0095V42.1135C34.0671 42.3154 33.9098 42.4793 33.7155 42.4793Z" fill="#E0EBFC"/>
<path d="M26.0312 43.9817H37.5156C37.7098 43.9817 37.8671 44.1454 37.8671 44.3474V45.8023H25.6797V44.3474C25.6797 44.1454 25.837 43.9817 26.0312 43.9817Z" fill="#F9CFCF"/>
<path d="M24.7048 45.8022H38.8698C39.0641 45.8022 39.2214 45.9659 39.2214 46.168V47.6229H24.3533V46.168C24.3533 45.9661 24.5108 45.8022 24.7048 45.8022Z" fill="#F9CFCF"/>
<path d="M29.3337 36.1815H34.0671V35.0842H29.3337V36.1815Z" fill="#A4C9FF"/>
<path d="M40.9461 48.0212H1.89929C1.51152 48.0212 1.19617 47.6931 1.19617 47.2897V44.3709C1.19617 43.9675 1.51152 43.6394 1.89929 43.6394H40.9461C41.3339 43.6394 41.6492 43.9675 41.6492 44.3709V47.2897C41.6492 47.6931 41.3341 48.0212 40.9461 48.0212ZM1.89929 44.3709V47.2897H40.9466L40.9461 44.3709H1.89929Z" fill="#3762CC"/>
<path d="M40.1405 20.0945H2.68433C2.54616 20.0945 2.42066 20.0102 2.36388 19.8792C2.30693 19.7481 2.32925 19.5945 2.42066 19.4868L9.93812 10.6192C10.2719 10.2258 10.7523 10 11.2565 10H31.5685C32.0725 10 32.5531 10.2257 32.8867 10.6192C32.8869 10.6192 32.8869 10.6192 32.8869 10.6192L40.4043 19.4868C40.4957 19.5947 40.5179 19.7483 40.4611 19.8792C40.404 20.0102 40.2788 20.0945 40.1405 20.0945ZM3.46321 19.363H39.3618L32.3595 11.1031C32.1591 10.8668 31.8709 10.7315 31.5685 10.7315H11.2565C10.954 10.7315 10.6657 10.8668 10.4655 11.1031L3.46321 19.363Z" fill="#3762CC"/>
<path d="M41.77 25.2312H1.12061C0.502734 25.2312 0 24.7084 0 24.0654V20.5288C0 19.8859 0.502734 19.363 1.12061 19.363H41.77C42.3881 19.363 42.8906 19.8859 42.8906 20.5288V24.0654C42.8906 24.7084 42.3881 25.2312 41.77 25.2312ZM1.12061 20.0945C0.890332 20.0945 0.703125 20.2893 0.703125 20.5288V24.0654C0.703125 24.3049 0.890332 24.4997 1.12061 24.4997H41.77C42.0003 24.4997 42.1875 24.3049 42.1875 24.0654V20.5288C42.1875 20.2893 42.0003 20.0945 41.77 20.0945H1.12061Z" fill="#3762CC"/>
<path d="M37.8671 46.1679H25.6797C25.4856 46.1679 25.3281 46.0041 25.3281 45.8022V44.3474C25.3281 43.944 25.6435 43.616 26.0312 43.616H37.5156C37.9033 43.616 38.2187 43.944 38.2187 44.3474V45.8022C38.2187 46.0043 38.0612 46.1679 37.8671 46.1679ZM26.0311 45.4364H37.5156V44.3474H26.0307L26.0311 45.4364Z" fill="#3762CC"/>
<path d="M39.2214 47.9884H24.3533C24.1592 47.9884 24.0017 47.8246 24.0017 47.6227V46.1678C24.0017 45.7644 24.3171 45.4363 24.7048 45.4363H38.8698C39.2576 45.4363 39.5729 45.7644 39.5729 46.1678V47.6227C39.5729 47.8248 39.4154 47.9884 39.2214 47.9884ZM24.7047 47.2569H38.8698V46.1678H24.7043L24.7047 47.2569Z" fill="#3762CC"/>
<path d="M40.2463 44.3475H2.58081C2.38675 44.3475 2.22925 44.1836 2.22925 43.9817V24.8655C2.22925 24.6636 2.38675 24.4998 2.58081 24.4998H40.2463C40.4404 24.4998 40.5979 24.6636 40.5979 24.8655V43.9817C40.5979 44.1838 40.4406 44.3475 40.2463 44.3475ZM2.93237 43.616H39.8948V25.2312H2.93237V43.616Z" fill="#3762CC"/>
<path d="M35.981 44.3473H27.5658C27.3717 44.3473 27.2142 44.1834 27.2142 43.9815V27.8946C27.2142 27.2774 27.6968 26.7754 28.29 26.7754H35.2568C35.85 26.7754 36.3326 27.2774 36.3326 27.8946V43.9815C36.3326 44.1836 36.1752 44.3473 35.981 44.3473ZM27.9174 43.6158H35.6294V27.8946C35.6294 27.6808 35.4623 27.5069 35.2568 27.5069H28.29C28.0845 27.5069 27.9174 27.6808 27.9174 27.8946V43.6158Z" fill="#3762CC"/>
<path d="M24.5397 42.2019H5.25689C4.85453 42.2019 4.52722 41.8613 4.52722 41.4428V39.726C4.52722 39.3075 4.85453 38.967 5.25689 38.967H24.5397C24.9421 38.967 25.2694 39.3075 25.2694 39.726V41.4428C25.2696 41.8612 24.9423 42.2019 24.5397 42.2019ZM5.25689 39.6983C5.2423 39.6983 5.23035 39.7106 5.23035 39.7258V41.4426C5.23035 41.4577 5.2423 41.4702 5.25689 41.4702H24.5397C24.5543 41.4702 24.5663 41.4577 24.5663 41.4426V39.7258C24.5663 39.7106 24.5543 39.6983 24.5397 39.6983H5.25689Z" fill="#3762CC"/>
<path d="M21.4453 24.7774C25.0919 24.7774 28.0482 21.702 28.0482 17.9082C28.0482 14.1145 25.0919 11.0391 21.4453 11.0391C17.7986 11.0391 14.8424 14.1145 14.8424 17.9082C14.8424 21.702 17.7986 24.7774 21.4453 24.7774Z" fill="#E0EBFC"/>
<path d="M21.4453 25.1433C17.6106 25.1433 14.4908 21.8977 14.4908 17.9083C14.4908 13.919 17.6106 10.6736 21.4453 10.6736C25.2798 10.6736 28.3995 13.9192 28.3995 17.9085C28.3995 21.8978 25.2798 25.1433 21.4453 25.1433ZM21.4453 11.4051C17.9984 11.4051 15.194 14.3224 15.194 17.9085C15.194 21.4946 17.9984 24.412 21.4453 24.412C24.8922 24.412 27.6964 21.4946 27.6964 17.9085C27.6964 14.3224 24.8922 11.4051 21.4453 11.4051Z" fill="#3762CC"/>
<path d="M17.4675 16.8552V21.6305C17.4675 21.9988 17.7544 22.2973 18.1084 22.2973H24.7169C25.0709 22.2973 25.3578 21.9988 25.3578 21.6305V16.8552H17.4675Z" fill="#A4C9FF"/>
<path d="M25.4531 16.8552H17.4375C17.2531 16.8552 17.1035 16.6996 17.1035 16.5077V14.9007C17.1035 14.7088 17.2531 14.5532 17.4375 14.5532H25.4531C25.6375 14.5532 25.7871 14.7088 25.7871 14.9007V16.5077C25.7871 16.6996 25.6375 16.8552 25.4531 16.8552Z" fill="#A4C9FF"/>
<path d="M22.373 14.5532H20.4526V22.2971H22.373V14.5532Z" fill="#FFEA92"/>
<path d="M24.2204 12.8508H23.6491C23.6195 12.8508 23.5902 12.8549 23.5615 12.8629L21.4128 13.4697V14.5532H24.2204C24.4048 14.5532 24.5544 14.3976 24.5544 14.2057V13.1981C24.5544 13.0063 24.4048 12.8508 24.2204 12.8508Z" fill="#F9A7A7"/>
<path d="M19.1765 12.8508H18.6052C18.4208 12.8508 18.2712 13.0065 18.2712 13.1983V14.2059C18.2712 14.3977 18.4208 14.5534 18.6052 14.5534H21.4128V13.4698L19.264 12.8631C19.2354 12.8549 19.206 12.8508 19.1765 12.8508Z" fill="#F9A7A7"/>
<path d="M21.9294 14.553H20.8962V13.5889C20.8962 13.3971 21.0458 13.2415 21.2302 13.2415H21.5954C21.7798 13.2415 21.9294 13.3971 21.9294 13.5889V14.553Z" fill="#F9A7A7"/>
<path d="M24.0391 29.6445H5.75787V39.3325H24.0391V29.6445Z" fill="#E0EBFC"/>
<path d="M24.5399 29.6446H5.25689C5.04806 29.6446 4.87878 29.4685 4.87878 29.2513V27.5345C4.87878 27.3172 5.04806 27.1411 5.25689 27.1411H24.5399C24.7487 27.1411 24.918 27.3172 24.918 27.5345V29.2513C24.918 29.4685 24.7487 29.6446 24.5399 29.6446Z" fill="#A4C9FF"/>
<path d="M24.5397 42.2019H5.25689C4.85453 42.2019 4.52722 41.8613 4.52722 41.4428V39.726C4.52722 39.3075 4.85453 38.967 5.25689 38.967H24.5397C24.9421 38.967 25.2694 39.3075 25.2694 39.726V41.4428C25.2696 41.8612 24.9423 42.2019 24.5397 42.2019ZM5.25689 39.6983C5.2423 39.6983 5.23035 39.7106 5.23035 39.7258V41.4426C5.23035 41.4577 5.2423 41.4702 5.25689 41.4702H24.5397C24.5543 41.4702 24.5663 41.4577 24.5663 41.4426V39.7258C24.5663 39.7106 24.5543 39.6983 24.5397 39.6983H5.25689Z" fill="#3762CC"/>
<path d="M24.5397 30.0103H5.25689C4.85453 30.0103 4.52722 29.6698 4.52722 29.2513V27.5345C4.52722 27.1161 4.85453 26.7756 5.25689 26.7756H24.5397C24.9421 26.7756 25.2694 27.1161 25.2694 27.5345V29.2513C25.2696 29.6696 24.9423 30.0103 24.5397 30.0103ZM5.25689 27.5069C5.2423 27.5069 5.23035 27.5192 5.23035 27.5344V29.2512C5.23035 29.2663 5.2423 29.2786 5.25689 29.2786H24.5397C24.5543 29.2786 24.5663 29.2663 24.5663 29.2512V27.5344C24.5663 27.5192 24.5543 27.5069 24.5397 27.5069H5.25689Z" fill="#3762CC"/>
<path d="M24.0391 39.6982H5.75787C5.56381 39.6982 5.40631 39.5343 5.40631 39.3324V29.6443C5.40631 29.4424 5.56381 29.2786 5.75787 29.2786H24.0391C24.2332 29.2786 24.3907 29.4424 24.3907 29.6443V39.3324C24.3907 39.5345 24.2332 39.6982 24.0391 39.6982ZM6.10926 38.9667H23.6874V30.01H6.10926V38.9667Z" fill="#3762CC"/>
<path d="M20.6112 39.6982H9.18542C8.99136 39.6982 8.83386 39.5343 8.83386 39.3324V29.6443C8.83386 29.4424 8.99136 29.2786 9.18542 29.2786H20.6112C20.8053 29.2786 20.9628 29.4424 20.9628 29.6443V39.3324C20.9628 39.5345 20.8054 39.6982 20.6112 39.6982ZM9.53699 38.9667H20.2596V30.01H9.53699V38.9667Z" fill="#3762CC"/>
</svg>
