<svg width="22" height="23" viewBox="0 0 22 23" fill="none" xmlns="http://www.w3.org/2000/svg">
<path d="M16.1459 14.8684C17.4772 12.9688 18.0735 10.6136 17.8155 8.27409C17.5574 5.93455 16.4641 3.78315 14.7541 2.25032C13.0442 0.717485 10.8437 -0.0837417 8.59306 0.00693534C6.34239 0.0976123 4.20746 1.07351 2.61538 2.73937C1.0233 4.40524 0.0915006 6.63823 0.00638874 8.9916C-0.0787231 11.345 0.689134 13.6452 2.15634 15.432C3.62354 17.2188 5.68189 18.3605 7.91959 18.6287C10.1573 18.8968 12.4093 18.2716 14.2251 16.8782H14.2237C14.2649 16.9357 14.3089 16.9903 14.3584 17.0435L19.652 22.5785C19.9098 22.8482 20.2596 22.9999 20.6243 23C20.989 23.0001 21.3389 22.8488 21.5969 22.5792C21.8549 22.3096 21.9999 21.9439 22 21.5626C22.0001 21.1812 21.8554 20.8154 21.5975 20.5456L16.304 15.0107C16.2548 14.9587 16.202 14.9106 16.1459 14.8669V14.8684ZM16.5006 9.34205C16.5006 10.3804 16.305 11.4086 15.925 12.368C15.5449 13.3273 14.9879 14.199 14.2857 14.9332C13.5835 15.6674 12.7498 16.2499 11.8323 16.6472C10.9148 17.0446 9.93148 17.2491 8.9384 17.2491C7.94531 17.2491 6.96195 17.0446 6.04446 16.6472C5.12697 16.2499 4.29332 15.6674 3.5911 14.9332C2.88889 14.199 2.33186 13.3273 1.95182 12.368C1.57179 11.4086 1.37618 10.3804 1.37618 9.34205C1.37618 7.24497 2.17291 5.23377 3.5911 3.75091C5.0093 2.26805 6.93277 1.43499 8.9384 1.43499C10.944 1.43499 12.8675 2.26805 14.2857 3.75091C15.7039 5.23377 16.5006 7.24497 16.5006 9.34205Z" fill="#1B1B1B"/>
</svg>
